<?xml version="1.0" encoding="UTF-8"?>
<svg id="Layer_1" data-name="Layer 1" xmlns="http://www.w3.org/2000/svg" viewBox="0 0 114.83 118.01">
  <defs>
    <style>
      .cls-1 {
        fill: #231f20;
      }
    </style>
  </defs>
  <path class="cls-1" d="M57.36,21.45c-.14,2.47-1.33,4.66-2.36,6.85s-2.03,4.53-2.92,6.85c-1.8,4.66-3.23,9.45-4.32,14.32-.28,1.27,1.48,2.12,2.16.91,1.14-2.04,2.53-3.9,4.21-5.53,1.43-1.39,3.82-3.79,6.03-3.5s2.93,4.04,3.5,5.74c.9,2.63,1.64,5.32,2.26,8.03.34,1.48,2.62.86,2.28-.63-.76-3.33-1.72-6.62-2.89-9.83-.87-2.37-1.9-5.22-4.77-5.63s-5.26,1.62-7.19,3.32c-2.2,1.94-4.04,4.27-5.47,6.83l2.16.91c1.13-5.02,2.62-9.95,4.49-14.75.94-2.4,1.99-4.74,3.1-7.06,1.04-2.19,1.97-4.38,2.1-6.83.08-1.52-2.28-1.52-2.36,0h0Z"/>
  <path class="cls-1" d="M84.5,41.38c-2.02-1.03-4.31-.44-5.94,1.05-1.88,1.72-2.33,4.4-2.53,6.81-.1,1.11-.25,2.35.29,3.39.58,1.13,1.78,1.59,3,1.36,2.17-.41,4.23-2.3,5.56-3.98,1.67-2.11,2.65-4.59,2.9-7.26l-2.2.6c3.47,4.51,6.46,9.37,8.93,14.49.66,1.37,2.7.17,2.04-1.19-2.47-5.13-5.46-9.98-8.93-14.49-.72-.94-2.09-.63-2.2.6-.19,1.99-.96,3.9-2.15,5.5-.59.8-1.3,1.53-2.09,2.14-.42.33-2.04,1.64-2.63,1.3s-.19-2.1-.14-2.6c.1-1.12.26-2.27.7-3.32.63-1.51,2.45-3.23,4.2-2.34,1.35.69,2.55-1.35,1.19-2.04h0Z"/>
  <path class="cls-1" d="M47.91,94.55c-2.02-1.03-4.31-.44-5.94,1.05-1.88,1.72-2.33,4.4-2.53,6.81-.1,1.11-.25,2.35.29,3.39.58,1.13,1.78,1.59,3,1.36,2.17-.41,4.23-2.3,5.56-3.98,1.67-2.11,2.65-4.59,2.9-7.26l-2.2.6c3.47,4.51,6.46,9.37,8.93,14.49.66,1.37,2.7.17,2.04-1.19-2.47-5.13-5.46-9.98-8.93-14.49-.72-.94-2.09-.63-2.2.6-.19,1.99-.96,3.9-2.15,5.5-.59.8-1.3,1.53-2.09,2.14-.42.33-2.04,1.64-2.63,1.3s-.19-2.1-.14-2.6c.1-1.12.26-2.27.7-3.32.63-1.51,2.45-3.23,4.2-2.34,1.35.69,2.55-1.35,1.19-2.04h0Z"/>
  <path class="cls-1" d="M99.78,23.54c-4.38,6.65-2.5,15.24,1.96,21.31,1.16,1.58,2.46,3.05,3.86,4.41,1.03,1.01,2.65,3.06,4.23,2.94s2.78-2.35,3.43-3.64c.92-1.83,1.42-3.79,1.57-5.83.11-1.52-2.25-1.51-2.36,0-.12,1.68-.56,3.33-1.34,4.83-.34.66-.76,1.52-1.31,2.04-.27.25,0,.4-.41-.05-.23-.25-.52-.45-.78-.68-2.33-2.08-4.47-4.39-6.11-7.07-3.14-5.12-4.15-11.81-.7-17.05.84-1.27-1.21-2.46-2.04-1.19h0Z"/>
  <path class="cls-1" d="M94.45,35.54l9.24-2.69c1.46-.42.84-2.71-.63-2.28l-9.24,2.69c-1.46.42-.84,2.71.63,2.28h0Z"/>
  <path class="cls-1" d="M70.19,81.13c-4.38,6.65-2.5,15.24,1.96,21.31,1.16,1.58,2.46,3.05,3.86,4.41,1.03,1.01,2.65,3.06,4.23,2.94s2.78-2.35,3.43-3.64c.92-1.83,1.42-3.79,1.57-5.83.11-1.52-2.25-1.51-2.36,0-.12,1.68-.56,3.33-1.34,4.83-.34.66-.76,1.52-1.31,2.04-.27.25,0,.4-.41-.05-.23-.25-.52-.45-.78-.68-2.33-2.08-4.47-4.39-6.11-7.07-3.14-5.12-4.15-11.81-.7-17.05.84-1.27-1.21-2.46-2.04-1.19h0Z"/>
  <path class="cls-1" d="M64.86,93.12c3.08-.9,6.16-1.79,9.24-2.69,1.46-.42.84-2.71-.63-2.28-3.08.9-6.16,1.79-9.24,2.69-1.46.42-.84,2.71.63,2.28h0Z"/>
  <path class="cls-1" d="M102.16,79.57c-2.42,1.09-5.49,2.42-7.1,4.64-1.75,2.42-.67,5.38.8,7.63,1.39,2.12,2.74,4.02,2.29,6.69-.38,2.2-1.78,4.28-3.93,5.05-1.42.51-.81,2.79.63,2.28,4.33-1.55,6.73-6.58,5.41-10.97-.81-2.68-3.77-4.86-3.76-7.75,0-1.56,1.27-2.43,2.46-3.18,1.41-.89,2.88-1.66,4.39-2.34,1.38-.63.18-2.66-1.19-2.04h0Z"/>
  <g>
    <path class="cls-1" d="M49.72,11.32c-11.84,1.06-23.55,3.47-34.83,7.24-2.87.96-5.71,2-8.51,3.14-2.29.93-3.98,2.33-3.62,5.02.34,2.53,2.02,4.88,3.27,7.04,1.45,2.49,2.97,4.95,4.56,7.36,3.65,5.53,7.66,10.83,11.98,15.86.99,1.16,2.66-.52,1.67-1.67-6.93-8.08-13.17-16.9-18.18-26.31-.5-.93-1.07-2.03-1-3.12.09-1.49,1.87-1.87,3.02-2.33,2.45-.97,4.93-1.87,7.43-2.71,5.14-1.72,10.38-3.17,15.68-4.32,6.11-1.33,12.29-2.28,18.52-2.84,1.5-.14,1.52-2.5,0-2.36h0Z"/>
    <path class="cls-1" d="M17.12,18.89c1.42-4.36,2.77-8.74,4.26-13.08.06-.18.14-.3.21-.48-.06.14-.26-.01-.14.1.27.25.49.5.68.82.55.94,1.05,1.91,1.55,2.87,1.05,2.01,2.03,4.05,2.95,6.11.26.58,1.11.72,1.62.42.6-.35.69-1.03.42-1.62-1.07-2.4-2.22-4.76-3.46-7.08-.88-1.64-2.55-5.19-4.98-3.55-.99.67-1.22,2.04-1.56,3.1l-1.3,4-2.52,7.74c-.47,1.45,1.81,2.07,2.28.63h0Z"/>
    <path class="cls-1" d="M36.63,13.31c.89-1.8,1.79-3.59,2.72-5.36.45-.86.9-1.71,1.35-2.56s.88-1.76,1.41-2.57c.03-.04.45-.55.47-.49-.27-.13-.38-.14-.32-.03v.02s.24.56.25.58c.36.91.72,1.82,1.09,2.72.75,1.89,1.51,3.77,2.26,5.66.24.59.79,1.01,1.45.83.56-.15,1.06-.86.83-1.45-.86-2.16-1.73-4.33-2.59-6.49-.22-.56-.45-1.12-.67-1.68-.2-.49-.36-1.04-.66-1.49-.65-.98-1.88-1.29-2.9-.66-.93.57-1.41,1.58-1.92,2.5-.55,1.01-1.09,2.02-1.63,3.04-1.09,2.07-2.15,4.15-3.18,6.25-.28.57-.15,1.28.42,1.62.52.3,1.33.15,1.62-.42h0Z"/>
    <path class="cls-1" d="M28.48,25.05c1.52,0,1.52-2.36,0-2.36s-1.52,2.36,0,2.36h0Z"/>
    <path class="cls-1" d="M38.62,23.12c1.52,0,1.52-2.36,0-2.36s-1.52,2.36,0,2.36h0Z"/>
    <path class="cls-1" d="M34.28,29.4c1.52,0,1.52-2.36,0-2.36s-1.52,2.36,0,2.36h0Z"/>
  </g>
  <g>
    <path class="cls-1" d="M47,71.96c-11.84,1.06-23.55,3.47-34.83,7.24-2.87.96-5.71,2-8.51,3.14-2.29.93-3.98,2.33-3.62,5.02.34,2.53,2.02,4.88,3.27,7.04,1.45,2.49,2.97,4.95,4.56,7.36,3.65,5.53,7.66,10.83,11.98,15.86.99,1.16,2.66-.52,1.67-1.67-6.93-8.08-13.17-16.9-18.18-26.31-.5-.93-1.07-2.03-1-3.12.09-1.49,1.87-1.87,3.02-2.33,2.45-.97,4.93-1.87,7.43-2.71,5.14-1.72,10.38-3.17,15.68-4.32,6.11-1.33,12.29-2.28,18.52-2.84,1.5-.14,1.52-2.5,0-2.36h0Z"/>
    <path class="cls-1" d="M14.39,79.53c1.42-4.36,2.77-8.74,4.26-13.08.06-.18.14-.3.21-.48-.06.14-.26-.01-.14.1.27.25.49.5.68.82.55.94,1.05,1.91,1.55,2.87,1.05,2.01,2.03,4.05,2.95,6.11.26.58,1.11.72,1.62.42.6-.35.69-1.03.42-1.62-1.07-2.4-2.22-4.76-3.46-7.08-.88-1.64-2.55-5.19-4.98-3.55-.99.67-1.22,2.04-1.56,3.1l-1.3,4-2.52,7.74c-.47,1.45,1.81,2.07,2.28.63h0Z"/>
    <path class="cls-1" d="M33.91,73.95c.89-1.8,1.79-3.59,2.72-5.36.45-.86.9-1.71,1.35-2.56s.88-1.76,1.41-2.57c.03-.04.45-.55.47-.49-.27-.13-.38-.14-.32-.03v.02s.24.56.25.58c.36.91.72,1.82,1.09,2.72.75,1.89,1.51,3.77,2.26,5.66.24.59.79,1.01,1.45.83.56-.15,1.06-.86.83-1.45-.86-2.16-1.73-4.33-2.59-6.49-.22-.56-.45-1.12-.67-1.68-.2-.49-.36-1.04-.66-1.49-.65-.98-1.88-1.29-2.9-.66-.93.57-1.41,1.58-1.92,2.5-.55,1.01-1.09,2.02-1.63,3.04-1.09,2.07-2.15,4.15-3.18,6.25-.28.57-.15,1.28.42,1.62.52.3,1.33.15,1.62-.42h0Z"/>
    <path class="cls-1" d="M25.75,85.69c1.52,0,1.52-2.36,0-2.36s-1.52,2.36,0,2.36h0Z"/>
    <path class="cls-1" d="M35.9,83.76c1.52,0,1.52-2.36,0-2.36s-1.52,2.36,0,2.36h0Z"/>
    <path class="cls-1" d="M31.55,90.03c1.52,0,1.52-2.36,0-2.36s-1.52,2.36,0,2.36h0Z"/>
  </g>
</svg>